# This file uses centimeters as units for non-parametric coordinates.

g default
v 0.624273 -0.056763 0.180203
v 0.586676 -0.051901 -0.395912
v 0.156078 0.003780 -0.776480
v -0.270010 0.058878 -0.810852
v -0.792705 0.126468 -0.304386
v -0.755107 0.121606 0.271729
v -0.324510 0.065925 0.652297
v 0.246848 -0.007958 0.614386
v 0.675974 4.086334 -0.092306
v 0.668512 4.105113 -0.224072
v 0.568449 4.100238 -0.312015
v 0.434400 4.074564 -0.304621
v 0.344889 4.043132 -0.206220
v 0.352351 4.024353 -0.074455
v 0.452414 4.029228 0.013489
v 0.586463 4.054901 0.006095
v 0.408966 4.461187 -0.031872
v 1.061429 2.451212 0.027544
v 0.809562 2.483781 0.317286
v 0.428278 2.533085 0.342586
v 0.140927 2.570242 0.088622
v 0.115837 2.573487 -0.295837
v 0.367704 2.540918 -0.585580
v 0.748988 2.491614 -0.610879
v 1.036338 2.454456 -0.356915
vt 0.305617 0.490810
vt 0.208939 0.490810
vt 0.208939 0.013433
vt 0.305617 0.013433
vt 0.402295 0.490810
vt 0.402295 0.013433
vt 0.498974 0.490810
vt 0.498974 0.013433
vt 0.595652 0.490810
vt 0.595652 0.013433
vt 0.692330 0.490810
vt 0.692330 0.013433
vt 0.789008 0.490810
vt 0.789008 0.013433
vt 0.885687 0.490810
vt 0.885687 0.013433
vt 0.982365 0.013433
vt 0.982365 0.490810
vt 0.135549 0.949047
vt 0.089670 0.968050
vt 0.089670 0.900573
vt 0.043792 0.949047
vt 0.024789 0.903169
vt 0.043792 0.857291
vt 0.089670 0.838287
vt 0.135549 0.857291
vt 0.154552 0.903169
vt 0.982365 0.983393
vt 0.885687 0.983393
vt 0.789008 0.983393
vt 0.692330 0.983393
vt 0.595652 0.983393
vt 0.498974 0.983393
vt 0.402295 0.983393
vt 0.305617 0.983393
vt 0.208939 0.983393
vn 0.900401 -0.058249 -0.431145
vn 0.949882 -0.051402 0.308355
vn 0.930666 -0.141688 0.337322
vn 0.880254 -0.150926 -0.449861
vn 0.401956 0.030199 -0.915161
vn 0.361201 -0.017748 -0.932319
vn -0.399334 0.183816 -0.898190
vn -0.436071 0.192380 -0.879109
vn -0.881790 0.285592 -0.375346
vn -0.879185 0.322804 -0.350473
vn -0.843258 0.302691 0.444178
vn -0.840281 0.339117 0.422999
vn -0.265240 0.201998 0.942786
vn -0.319789 0.213459 0.923131
vn 0.476703 0.054390 0.877380
vn 0.416737 0.014261 0.908915
vn 0.925388 0.257111 0.278480
vn 0.865651 0.259106 -0.428383
vn -0.204693 0.957445 0.203471
vn 0.342260 0.239249 -0.908635
vn -0.387917 0.202798 -0.899107
vn -0.917656 0.170839 -0.358777
vn -0.889889 0.169596 0.423479
vn -0.289261 0.199730 0.936182
vn 0.470782 0.235316 0.850289
s 1
g polySurface1 Ice_Shards_1 group1
f 25/1/1 18/2/2 1/3/3 2/4/4
f 24/5/5 25/1/1 2/4/4 3/6/6
f 23/7/7 24/5/5 3/6/6 4/8/8
f 22/9/9 23/7/7 4/8/8 5/10/10
f 21/11/11 22/9/9 5/10/10 6/12/12
f 20/13/13 21/11/11 6/12/12 7/14/14
f 19/15/15 20/13/13 7/14/14 8/16/16
f 1/17/3 18/18/2 19/15/15 8/16/16
f 9/19/17 10/20/18 17/21/19
f 10/20/18 11/22/20 17/21/19
f 11/22/20 12/23/21 17/21/19
f 12/23/21 13/24/22 17/21/19
f 13/24/22 14/25/23 17/21/19
f 14/25/23 15/26/24 17/21/19
f 15/26/24 16/27/25 17/21/19
f 16/27/25 9/19/17 17/21/19
f 19/15/15 18/18/2 9/28/17 16/29/25
f 20/13/13 19/15/15 16/29/25 15/30/24
f 21/11/11 20/13/13 15/30/24 14/31/23
f 22/9/9 21/11/11 14/31/23 13/32/22
f 23/7/7 22/9/9 13/32/22 12/33/21
f 24/5/5 23/7/7 12/33/21 11/34/20
f 25/1/1 24/5/5 11/34/20 10/35/18
f 18/2/2 25/1/1 10/35/18 9/36/17
