# This file uses centimeters as units for non-parametric coordinates.

g default
v -0.070691 -0.034372 -0.716262
v -0.550102 -0.086856 -0.398840
v -0.689368 0.020327 0.151126
v -0.532641 0.165372 0.525515
v 0.131815 0.405800 0.712538
v 0.611226 0.458284 0.395117
v 0.750492 0.351101 -0.154849
v 0.468033 0.147036 -0.615197
v -1.120019 3.563462 -1.136280
v -1.209203 3.567252 -1.082124
v -1.231302 3.573301 -0.980262
v -1.173371 3.578065 -0.890362
v -1.069345 3.578754 -0.865088
v -0.980162 3.574964 -0.919244
v -0.958063 3.568915 -1.021106
v -1.015994 3.564151 -1.111005
v -1.097426 4.362287 -1.060383
v -1.012595 2.292950 -1.219165
v -0.742129 2.384026 -1.168426
v -0.600320 2.486477 -0.937307
v -0.670238 2.540289 -0.661196
v -0.910927 2.513939 -0.501835
v -1.181394 2.422863 -0.552574
v -1.323203 2.320412 -0.783693
v -1.253284 2.266600 -1.059804
vt 0.305617 0.490810
vt 0.208939 0.490810
vt 0.208939 0.013433
vt 0.305617 0.013433
vt 0.402295 0.490810
vt 0.402295 0.013433
vt 0.498974 0.490810
vt 0.498974 0.013433
vt 0.595652 0.490810
vt 0.595652 0.013433
vt 0.692330 0.490810
vt 0.692330 0.013433
vt 0.789008 0.490810
vt 0.789008 0.013433
vt 0.885687 0.490810
vt 0.885687 0.013433
vt 0.982365 0.013433
vt 0.982365 0.490810
vt 0.137257 0.687673
vt 0.091379 0.706676
vt 0.091379 0.639199
vt 0.045501 0.687673
vt 0.026497 0.641795
vt 0.045501 0.595917
vt 0.091379 0.576913
vt 0.137257 0.595917
vt 0.156260 0.641795
vt 0.982365 0.983393
vt 0.885687 0.983393
vt 0.789008 0.983393
vt 0.692330 0.983393
vt 0.595652 0.983393
vt 0.498974 0.983393
vt 0.402295 0.983393
vt 0.305617 0.983393
vt 0.208939 0.983393
vn -0.782167 -0.310513 -0.540182
vn -0.180234 -0.219944 -0.958718
vn -0.116677 -0.254657 -0.959967
vn -0.766088 -0.375416 -0.521701
vn -0.981028 -0.167870 0.096967
vn -0.968506 -0.202052 0.145503
vn -0.634088 0.185072 0.750786
vn -0.592309 0.202838 0.779761
vn -0.005769 0.465722 0.884912
vn 0.032237 0.507455 0.861075
vn 0.677891 0.585258 0.444902
vn 0.655465 0.621285 0.429383
vn 0.866468 0.413844 -0.279225
vn 0.858182 0.457695 -0.232461
vn 0.503325 0.077286 -0.860634
vn 0.563962 0.102440 -0.819422
vn -0.217296 0.052348 -0.974701
vn -0.814782 0.034888 -0.578717
vn 0.002049 0.997801 -0.066245
vn -0.988076 0.102767 0.114648
vn -0.626486 0.220359 0.747635
vn 0.105705 0.320464 0.941345
vn 0.772819 0.341449 0.534943
vn 0.935548 0.269142 -0.228718
vn 0.503833 0.148009 -0.851027
s 1
g polySurface2 Ice_Shards_1 group1
f 25/1/1 18/2/2 1/3/3 2/4/4
f 24/5/5 25/1/1 2/4/4 3/6/6
f 23/7/7 24/5/5 3/6/6 4/8/8
f 22/9/9 23/7/7 4/8/8 5/10/10
f 21/11/11 22/9/9 5/10/10 6/12/12
f 20/13/13 21/11/11 6/12/12 7/14/14
f 19/15/15 20/13/13 7/14/14 8/16/16
f 1/17/3 18/18/2 19/15/15 8/16/16
f 9/19/17 10/20/18 17/21/19
f 10/20/18 11/22/20 17/21/19
f 11/22/20 12/23/21 17/21/19
f 12/23/21 13/24/22 17/21/19
f 13/24/22 14/25/23 17/21/19
f 14/25/23 15/26/24 17/21/19
f 15/26/24 16/27/25 17/21/19
f 16/27/25 9/19/17 17/21/19
f 19/15/15 18/18/2 9/28/17 16/29/25
f 20/13/13 19/15/15 16/29/25 15/30/24
f 21/11/11 20/13/13 15/30/24 14/31/23
f 22/9/9 21/11/11 14/31/23 13/32/22
f 23/7/7 22/9/9 13/32/22 12/33/21
f 24/5/5 23/7/7 12/33/21 11/34/20
f 25/1/1 24/5/5 11/34/20 10/35/18
f 18/2/2 25/1/1 10/35/18 9/36/17
