# This file uses centimeters as units for non-parametric coordinates.

g default
v 0.923880 -0.093596 -0.382683
v 0.707107 -0.093596 -0.707106
v 0.382684 -0.093596 -0.923879
v 0.000001 -0.093596 -1.000000
v -0.382683 -0.093596 -0.923880
v -0.707106 -0.093596 -0.707107
v -0.923879 -0.093596 -0.382684
v -1.000000 -0.093596 -0.000000
v -0.923880 -0.093596 0.382683
v -0.707107 -0.093596 0.707107
v -0.382684 -0.093596 0.923879
v -0.000000 -0.093596 1.000000
v 0.382683 -0.093596 0.923880
v 0.707107 -0.093596 0.707107
v 0.923880 -0.093596 0.382683
v 1.000000 -0.093596 0.000000
v 0.923880 0.154954 -0.382683
v 0.707107 0.154954 -0.707106
v 0.382684 0.154954 -0.923879
v 0.000001 0.154954 -1.000000
v -0.382683 0.154954 -0.923880
v -0.707106 0.154954 -0.707107
v -0.923879 0.154954 -0.382684
v -1.000000 0.154954 -0.000000
v -0.923880 0.154954 0.382683
v -0.707107 0.154954 0.707107
v -0.382684 0.154954 0.923879
v -0.000000 0.154954 1.000000
v 0.382683 0.154954 0.923880
v 0.707107 0.154954 0.707107
v 0.923880 0.154954 0.382683
v 1.000000 0.154954 0.000000
v 0.000000 -0.093596 0.000000
v 0.000000 0.154954 0.000000
vt 0.561588 0.186572
vt 0.499438 0.093559
vt 0.406424 0.031409
vt 0.296707 0.009585
vt 0.186990 0.031409
vt 0.093976 0.093558
vt 0.031826 0.186572
vt 0.010002 0.296289
vt 0.031826 0.406007
vt 0.093976 0.499020
vt 0.186990 0.561170
vt 0.296707 0.582994
vt 0.406424 0.561170
vt 0.499438 0.499021
vt 0.561588 0.406007
vt 0.583412 0.296289
vt 0.583803 0.009622
vt 0.684316 0.009622
vt 0.784828 0.009622
vt 0.885341 0.009622
vt 0.985854 0.009622
vt 0.119780 0.885108
vt 0.218995 0.885108
vt 0.318211 0.885108
vt 0.417427 0.885108
vt 0.119780 0.767073
vt 0.218995 0.767073
vt 0.318211 0.767073
vt 0.417427 0.767073
vt 0.684316 0.132382
vt 0.784828 0.132382
vt 0.885341 0.132382
vt 0.985853 0.132382
vt 0.583803 0.110719
vt 0.684316 0.110719
vt 0.784828 0.110719
vt 0.885341 0.110719
vt 0.020564 0.984901
vt 0.119780 0.984901
vt 0.218995 0.984901
vt 0.318211 0.984901
vt 0.020564 0.866866
vt 0.119780 0.866866
vt 0.218995 0.866866
vt 0.318211 0.866866
vt 0.583803 0.233479
vt 0.684316 0.233479
vt 0.784828 0.233479
vt 0.885341 0.233479
vt 0.985853 0.233479
vt 0.971594 0.595134
vt 0.909444 0.502120
vt 0.816431 0.439970
vt 0.706714 0.418146
vt 0.596996 0.439970
vt 0.503983 0.502119
vt 0.441833 0.595134
vt 0.420009 0.704850
vt 0.441833 0.814568
vt 0.503982 0.907582
vt 0.596996 0.969731
vt 0.706713 0.991556
vt 0.816431 0.969732
vt 0.909444 0.907582
vt 0.971594 0.814568
vt 0.993418 0.704851
vt 0.296707 0.284821
vt 0.706713 0.693383
vt 0.020564 0.885108
vt 0.985854 0.110719
vt 0.020564 0.767073
vt 0.417427 0.984901
vt 0.583803 0.132382
vt 0.417427 0.866866
vn 0.923880 0.000000 -0.382683
vn 0.707107 0.000000 -0.707106
vn 0.707107 0.000000 -0.707106
vn 0.923880 0.000000 -0.382683
vn 0.382684 0.000000 -0.923879
vn 0.382684 0.000000 -0.923879
vn 0.000000 0.000000 -1.000000
vn 0.000000 0.000000 -1.000000
vn -0.382683 0.000000 -0.923880
vn -0.382683 0.000000 -0.923880
vn -0.707106 0.000000 -0.707107
vn -0.707106 0.000000 -0.707107
vn -0.923879 0.000000 -0.382684
vn -0.923879 0.000000 -0.382684
vn -1.000000 0.000000 -0.000000
vn -1.000000 0.000000 -0.000000
vn -0.923880 0.000000 0.382683
vn -0.923880 0.000000 0.382683
vn -0.707107 0.000000 0.707107
vn -0.707107 0.000000 0.707107
vn -0.382684 0.000000 0.923879
vn -0.382684 0.000000 0.923879
vn -0.000000 0.000000 1.000000
vn -0.000000 0.000000 1.000000
vn 0.382683 0.000000 0.923880
vn 0.382683 0.000000 0.923880
vn 0.707107 0.000000 0.707107
vn 0.707107 0.000000 0.707107
vn 0.923880 0.000000 0.382684
vn 0.923880 0.000000 0.382684
vn 1.000000 0.000000 0.000000
vn 1.000000 0.000000 0.000000
vn 0.000000 -1.000000 -0.000000
vn 0.000000 -1.000000 -0.000000
vn 0.000000 -1.000000 0.000000
vn 0.000000 -1.000000 0.000000
vn 0.000000 -1.000000 0.000000
vn 0.000000 -1.000000 0.000000
vn 0.000000 -1.000000 0.000000
vn 0.000000 -1.000000 0.000000
vn 0.000000 -1.000000 0.000000
vn 0.000000 -1.000000 0.000000
vn 0.000000 -1.000000 0.000000
vn 0.000000 -1.000000 0.000000
vn 0.000000 -1.000000 0.000000
vn 0.000000 -1.000000 0.000000
vn 0.000000 -1.000000 0.000000
vn 0.000000 -1.000000 0.000000
vn 0.000000 -1.000000 0.000000
vn 0.000000 1.000000 0.000000
vn 0.000000 1.000000 0.000000
vn 0.000000 1.000000 0.000000
vn 0.000000 1.000000 0.000000
vn 0.000000 1.000000 0.000000
vn 0.000000 1.000000 0.000000
vn 0.000000 1.000000 0.000000
vn 0.000000 1.000000 0.000000
vn 0.000000 1.000000 0.000000
vn 0.000000 1.000000 0.000000
vn 0.000000 1.000000 0.000000
vn 0.000000 1.000000 0.000000
vn 0.000000 1.000000 0.000000
vn 0.000000 1.000000 0.000000
vn 0.000000 1.000000 0.000000
vn 0.000000 1.000000 0.000000
vn 0.000000 1.000000 0.000000
s 1
g pCylinder1
f 1/17/1 2/18/2 18/35/3 17/34/4
f 2/18/2 3/19/5 19/36/6 18/35/3
f 3/19/5 4/20/7 20/37/8 19/36/6
f 4/20/7 5/21/9 21/70/10 20/37/8
f 5/69/9 6/22/11 22/39/12 21/38/10
f 6/22/11 7/23/13 23/40/14 22/39/12
f 7/23/13 8/24/15 24/41/16 23/40/14
f 8/24/15 9/25/17 25/72/18 24/41/16
f 9/71/17 10/26/19 26/43/20 25/42/18
f 10/26/19 11/27/21 27/44/22 26/43/20
f 11/27/21 12/28/23 28/45/24 27/44/22
f 12/28/23 13/29/25 29/74/26 28/45/24
f 13/73/25 14/30/27 30/47/28 29/46/26
f 14/30/27 15/31/29 31/48/30 30/47/28
f 15/31/29 16/32/31 32/49/32 31/48/30
f 16/32/31 1/33/1 17/50/4 32/49/32
s 2
f 2/2/33 1/1/34 33/67/35
f 3/3/36 2/2/33 33/67/35
f 4/4/37 3/3/36 33/67/35
f 5/5/38 4/4/37 33/67/35
f 6/6/39 5/5/38 33/67/35
f 7/7/40 6/6/39 33/67/35
f 8/8/41 7/7/40 33/67/35
f 9/9/42 8/8/41 33/67/35
f 10/10/43 9/9/42 33/67/35
f 11/11/44 10/10/43 33/67/35
f 12/12/45 11/11/44 33/67/35
f 13/13/46 12/12/45 33/67/35
f 14/14/47 13/13/46 33/67/35
f 15/15/48 14/14/47 33/67/35
f 16/16/49 15/15/48 33/67/35
f 1/1/34 16/16/49 33/67/35
s 3
f 17/65/50 18/64/51 34/68/52
f 18/64/51 19/63/53 34/68/52
f 19/63/53 20/62/54 34/68/52
f 20/62/54 21/61/55 34/68/52
f 21/61/55 22/60/56 34/68/52
f 22/60/56 23/59/57 34/68/52
f 23/59/57 24/58/58 34/68/52
f 24/58/58 25/57/59 34/68/52
f 25/57/59 26/56/60 34/68/52
f 26/56/60 27/55/61 34/68/52
f 27/55/61 28/54/62 34/68/52
f 28/54/62 29/53/63 34/68/52
f 29/53/63 30/52/64 34/68/52
f 30/52/64 31/51/65 34/68/52
f 31/51/65 32/66/66 34/68/52
f 32/66/66 17/65/50 34/68/52
